<?xml version="1.0" encoding="utf-8"?>
<!-- Generator: Adobe Illustrator 25.2.1, SVG Export Plug-In . SVG Version: 6.00 Build 0)  -->
<svg version="1.1" id="Logo" xmlns="http://www.w3.org/2000/svg" xmlns:xlink="http://www.w3.org/1999/xlink" x="0px" y="0px"
	 viewBox="0 0 130.5 48" style="enable-background:new 0 0 130.5 48;" xml:space="preserve" height="100%">
<style type="text/css">
	.st0{fill:#FFFFFF;}
	.st1{fill:#CCCCCC;}
	.st2{fill:#A6A6A6;}
</style>
<path class="st0" d="M53.7,26.1V12.5h5.7v13.8c0,2.3,1.2,3.8,4,3.8c2.6,0,3.9-1.6,3.9-3.9V12.5H73v13.6c0,5.3-3.2,8.5-9.6,8.5
	C56.9,34.7,53.7,31.5,53.7,26.1z"/>
<path class="st0" d="M75.6,17.7h5.1V20h0.1c1.2-1.8,2.8-2.7,5.1-2.7c3.6,0,5.7,2.6,5.7,6.3v10.7h-5.3v-9.7c0-1.7-0.9-2.9-2.6-2.9
	c-1.7,0-2.9,1.5-2.9,3.5v9.1h-5.3V17.7z"/>
<path class="st0" d="M94.3,11.2h5.3v4.3h-5.3V11.2z M94.3,17.7h5.3v16.5h-5.3V17.7z"/>
<path class="st0" d="M103.7,29.9V22h-2.2v-4.3h2.2v-5.2h5.1v5.2h3V22h-3v6.8c0,1.3,0.7,1.6,1.8,1.6c0.5,0,1,0,1.2,0v3.8
	c-0.5,0.1-1.5,0.3-2.9,0.3C105.9,34.5,103.7,33.5,103.7,29.9z"/>
<path class="st0" d="M115.1,35.6h1.8c1.5,0,2.2-0.6,2.2-1.7c0-0.7-0.3-1.7-1-3.4l-4.9-12.7h5.5l2.2,7c0.5,1.6,1,3.8,1,3.8h0.1
	c0,0,0.5-2.2,1-3.8l2.2-7h5.3l-5.7,16.7c-1.3,3.9-2.9,5.2-6.2,5.2h-3.4L115.1,35.6L115.1,35.6z"/>
<path class="st1" d="M42.5,33.6V11.2L23.1,0v8.6l7.6,4.4c0.3,0.2,0.3,0.6,0,0.7l-9,5.2c-0.3,0.2-0.6,0.1-0.8,0l-9-5.2
	c-0.3-0.1-0.3-0.6,0-0.7l7.6-4.4V0L0,11.2v22.4v-0.1v0.1l7.4-4.3v-8.8c0-0.3,0.4-0.5,0.6-0.4l9,5.2c0.3,0.2,0.4,0.4,0.4,0.7v10.4
	c0,0.3-0.4,0.5-0.6,0.4l-7.6-4.4l-7.4,4.3L21.2,48l19.4-11.2l-7.4-4.3l-7.6,4.4c-0.3,0.2-0.6,0-0.6-0.4V26.1c0-0.3,0.2-0.6,0.4-0.7
	l9-5.2c0.3-0.2,0.6,0,0.6,0.4v8.8L42.5,33.6z"/>
<path class="st2" d="M21.2,48l19.4-11.2l-7.4-4.3l-7.6,4.4c-0.3,0.2-0.6,0-0.6-0.4V26.1c0-0.3,0.2-0.6,0.4-0.7l9-5.2
	c0.3-0.2,0.6,0,0.6,0.4v8.8l7.4,4.3V11.2L21.2,23.5V48z"/>
<path class="st0" d="M23.1,0v8.6l7.6,4.4c0.3,0.2,0.3,0.6,0,0.7l-9,5.2c-0.3,0.2-0.6,0.1-0.8,0l-9-5.2c-0.3-0.1-0.3-0.6,0-0.7
	l7.6-4.4V0L0,11.2l21.2,12.3l21.2-12.3L23.1,0z"/>
<path class="st1" d="M16.9,36.9l-7.6-4.4l-7.4,4.3L21.3,48V23.5L0,11.2v22.4v-0.1v0.1l7.4-4.3v-8.8c0-0.3,0.4-0.5,0.6-0.4l9,5.2
	c0.3,0.2,0.4,0.4,0.4,0.7v10.4C17.5,36.8,17.2,37.1,16.9,36.9z"/>
</svg>
